<svg xmlns="http://www.w3.org/2000/svg" width="7" height="7" viewBox="0 0 7 7">
  <g id="Icon_feather-circle" data-name="Icon feather-circle" transform="translate(-2 -2)" fill="red" stroke-linecap="round" stroke-linejoin="round">
    <path d="M 5.5 8.5 C 3.845789909362793 8.5 2.5 7.154210090637207 2.5 5.5 C 2.5 3.845789909362793 3.845789909362793 2.5 5.5 2.5 C 7.154210090637207 2.5 8.5 3.845789909362793 8.5 5.5 C 8.5 7.154210090637207 7.154210090637207 8.5 5.5 8.5 Z" stroke="none"/>
    <path d="M 5.5 3 C 4.119289875030518 3 3 4.119289875030518 3 5.5 C 3 6.880710124969482 4.119289875030518 8 5.5 8 C 6.880710124969482 8 8 6.880710124969482 8 5.5 C 8 4.119289875030518 6.880710124969482 3 5.5 3 M 5.5 2 C 7.429909706115723 2 9 3.570089817047119 9 5.5 C 9 7.429909706115723 7.429909706115723 9 5.5 9 C 3.570089817047119 9 2 7.429909706115723 2 5.5 C 2 3.570089817047119 3.570089817047119 2 5.5 2 Z" stroke="none" fill="red"/>
  </g>
</svg>
