<svg xmlns="http://www.w3.org/2000/svg" width="821.68" height="681.882" viewBox="0 0 821.68 681.882"><g id="Group_64" data-name="Group 64" transform="translate(-2767 -33.053)"><path id="Path_12" data-name="Path 12" d="M384.192,486.841,201.053,182.887,90.869,0,54.891,59.7a126.283,126.283,0,0,0,.068,130.448l35.8,59.3.107-.165,59.045,98,.165-.1L314.526,619.927a128.119,128.119,0,0,0,109.7,61.955H501.71Z" transform="translate(3086.97 33.053)" fill="red"></path><path id="Path_13" data-name="Path 13" d="M364.58,336.186H227.7l72.47-120.272A128.659,128.659,0,0,0,300.1,83.022L265.028,24.947,117.508,269.8,0,464.829H514.312l-40.3-66.844a127.777,127.777,0,0,0-109.427-61.8" transform="translate(2767 250.095)" fill="red"></path></g></svg>